<svg id="Layer_1" data-name="Layer 1" xmlns="http://www.w3.org/2000/svg" width="379.26" height="67.57" viewBox="0 0 379.26 67.57">
  <defs>
    <style>
      .cls-1 {
        fill: #1b75bb;
      }

      .cls-2 {
        fill: #8f288c;
      }

      .cls-3 {
        fill: #8ac440;
      }

      .cls-4 {
        fill: #757576;
      }

      .cls-5 {
        fill: #f05a29;
      }

      .cls-6 {
        fill: #1f93d1;
      }
    </style>
  </defs>
  <title>RSS-logo</title>
  <g>
    <g>
      <path class="cls-1" d="M103,67.51a5.27,5.27,0,0,1-2,4.35,8.64,8.64,0,0,1-5.53,1.59,13,13,0,0,1-5.78-1.23v-4a23.85,23.85,0,0,0,3.5,1.3,10.34,10.34,0,0,0,2.62.38A3.73,3.73,0,0,0,98,69.34a1.86,1.86,0,0,0,.76-1.62,1.79,1.79,0,0,0-.34-1.07,3.75,3.75,0,0,0-1-.9,25.25,25.25,0,0,0-2.64-1.38A12.52,12.52,0,0,1,92,62.68a6.33,6.33,0,0,1-1.49-1.88A5.37,5.37,0,0,1,90,58.28,5.28,5.28,0,0,1,91.79,54a7.63,7.63,0,0,1,5.07-1.55,12,12,0,0,1,3,.38,21,21,0,0,1,3,1.06l-1.4,3.36a20.38,20.38,0,0,0-2.7-.93,8.69,8.69,0,0,0-2.1-.27,2.78,2.78,0,0,0-1.88.57,1.89,1.89,0,0,0-.66,1.49,1.85,1.85,0,0,0,.26,1,2.92,2.92,0,0,0,.84.82A26.2,26.2,0,0,0,98,61.39,10.92,10.92,0,0,1,102,64.14,5.35,5.35,0,0,1,103,67.51Z" transform="translate(-7.43 -8.86)"/>
      <path class="cls-1" d="M141.25,62.94q0,5.07-2.51,7.79t-7.2,2.72q-4.69,0-7.2-2.72t-2.51-7.82q0-5.09,2.52-7.78t7.22-2.69q4.7,0,7.2,2.71T141.25,62.94Zm-14.89,0a8.52,8.52,0,0,0,1.3,5.15,4.54,4.54,0,0,0,3.88,1.73q5.18,0,5.18-6.88T131.56,56a4.57,4.57,0,0,0-3.89,1.74A8.49,8.49,0,0,0,126.36,62.94Z" transform="translate(-7.43 -8.86)"/>
      <path class="cls-1" d="M161.49,73.17V52.77h4.33V69.6h8.28v3.57Z" transform="translate(-7.43 -8.86)"/>
      <path class="cls-1" d="M210.26,52.77V66a7.61,7.61,0,0,1-1,4,6.59,6.59,0,0,1-2.92,2.61,10.45,10.45,0,0,1-4.52.91,8.66,8.66,0,0,1-6.11-2,7.16,7.16,0,0,1-2.18-5.52V52.77h4.31V65.26a5.23,5.23,0,0,0,.95,3.46,4,4,0,0,0,3.14,1.1A3.86,3.86,0,0,0,205,68.71a5.26,5.26,0,0,0,1-3.48V52.77Z" transform="translate(-7.43 -8.86)"/>
      <path class="cls-1" d="M239.13,73.17h-4.33V56.37h-5.54v-3.6h15.41v3.6h-5.54Z" transform="translate(-7.43 -8.86)"/>
      <path class="cls-1" d="M263.82,73.17V52.77h4.33V73.17Z" transform="translate(-7.43 -8.86)"/>
      <path class="cls-1" d="M307.82,62.94q0,5.07-2.51,7.79t-7.2,2.72q-4.69,0-7.2-2.72t-2.51-7.82q0-5.09,2.52-7.78t7.22-2.69q4.7,0,7.2,2.71T307.82,62.94Zm-14.89,0a8.52,8.52,0,0,0,1.3,5.15,4.54,4.54,0,0,0,3.88,1.73q5.18,0,5.18-6.88T298.13,56a4.57,4.57,0,0,0-3.89,1.74A8.49,8.49,0,0,0,292.92,62.94Z" transform="translate(-7.43 -8.86)"/>
      <path class="cls-1" d="M346.16,73.17h-5.5l-8.88-15.44h-.13q.27,4.09.27,5.83v9.6h-3.87V52.77h5.46l8.86,15.28h.1q-.21-4-.21-5.63V52.77h3.89Z" transform="translate(-7.43 -8.86)"/>
      <path class="cls-1" d="M379.35,67.51a5.27,5.27,0,0,1-2,4.35,8.64,8.64,0,0,1-5.53,1.59A13,13,0,0,1,366,72.23v-4a23.85,23.85,0,0,0,3.5,1.3,10.34,10.34,0,0,0,2.62.38,3.73,3.73,0,0,0,2.18-.54,1.86,1.86,0,0,0,.76-1.62,1.79,1.79,0,0,0-.34-1.07,3.75,3.75,0,0,0-1-.9,25.25,25.25,0,0,0-2.64-1.38,12.52,12.52,0,0,1-2.81-1.69,6.33,6.33,0,0,1-1.49-1.88,5.37,5.37,0,0,1-.56-2.51A5.28,5.28,0,0,1,368.12,54a7.63,7.63,0,0,1,5.07-1.55,12,12,0,0,1,3,.38,21,21,0,0,1,3,1.06l-1.4,3.36a20.38,20.38,0,0,0-2.7-.93,8.69,8.69,0,0,0-2.1-.27,2.78,2.78,0,0,0-1.88.57,1.89,1.89,0,0,0-.66,1.49,1.85,1.85,0,0,0,.26,1,2.92,2.92,0,0,0,.84.82,26.2,26.2,0,0,0,2.74,1.43,10.92,10.92,0,0,1,3.92,2.74A5.35,5.35,0,0,1,379.35,67.51Z" transform="translate(-7.43 -8.86)"/>
    </g>
    <g>
      <path class="cls-1" d="M99.73,31.69V42.36H91.81V13h9.61q12,0,12,8.67,0,5.1-5,7.89l8.55,12.78h-9l-6.22-10.67Zm0-6h1.49q4.15,0,4.15-3.67,0-3-4.07-3H99.73Z" transform="translate(-7.43 -8.86)"/>
      <path class="cls-1" d="M119.62,42.36V13h8V42.36Z" transform="translate(-7.43 -8.86)"/>
      <path class="cls-1" d="M153.1,33.45a8.65,8.65,0,0,1-1.38,4.85,9.07,9.07,0,0,1-4,3.29,14.8,14.8,0,0,1-6.12,1.17,24.79,24.79,0,0,1-4.92-.41,18.27,18.27,0,0,1-4.13-1.43V33.86a23.58,23.58,0,0,0,4.72,1.82,17.56,17.56,0,0,0,4.49.65,4.37,4.37,0,0,0,2.59-.61,1.88,1.88,0,0,0,.82-1.58,1.74,1.74,0,0,0-.33-1.05,3.86,3.86,0,0,0-1.06-.91q-.73-.46-3.9-1.89a18.73,18.73,0,0,1-4.3-2.53,7.75,7.75,0,0,1-2.13-2.81,9.32,9.32,0,0,1-.69-3.75,7.52,7.52,0,0,1,2.95-6.32q3-2.27,8.11-2.27a22.74,22.74,0,0,1,9.29,2.11l-2.43,6.12a17.59,17.59,0,0,0-7.1-1.89,3.7,3.7,0,0,0-2.25.54,1.64,1.64,0,0,0-.7,1.34,1.94,1.94,0,0,0,.89,1.55,34,34,0,0,0,4.85,2.49,13.42,13.42,0,0,1,5.27,3.66A8,8,0,0,1,153.1,33.45Z" transform="translate(-7.43 -8.86)"/>
      <path class="cls-1" d="M182.7,42.36h-8.95L168,31.15l-2.35,1.4v9.81h-8V13h8V25.77A34.83,34.83,0,0,1,168,22l6.16-9h8.67l-9.25,13.14Z" transform="translate(-7.43 -8.86)"/>
      <path class="cls-1" d="M216.27,42.36l-2-2a17.14,17.14,0,0,1-3,1.58,13.07,13.07,0,0,1-2.59.65,21.76,21.76,0,0,1-3.28.22,13.68,13.68,0,0,1-5.61-1.08,8.47,8.47,0,0,1-3.73-3,7.82,7.82,0,0,1-1.29-4.43q0-5.26,5.46-8a11.41,11.41,0,0,1-1.94-3,8.76,8.76,0,0,1-.69-3.56,6.07,6.07,0,0,1,2.48-5.1,11,11,0,0,1,6.81-1.89,10.34,10.34,0,0,1,6.59,1.88,6.18,6.18,0,0,1,2.36,5.11,7.25,7.25,0,0,1-1.27,4.12,12.61,12.61,0,0,1-4,3.56l4,3.79a14.73,14.73,0,0,0,2.09-5.22h8.15a26.43,26.43,0,0,1-1.9,5.55A22.47,22.47,0,0,1,220,36.2l6.42,6.16ZM202.9,33.66a2.64,2.64,0,0,0,.9,2.07,3.46,3.46,0,0,0,2.39.8,6.08,6.08,0,0,0,2-.3,4.32,4.32,0,0,0,1.32-.68l-5-5.06A3.78,3.78,0,0,0,202.9,33.66Zm5.92-14a1.66,1.66,0,0,0-.57-1.41,2.5,2.5,0,0,0-2.91.07,1.93,1.93,0,0,0-.63,1.61A4.42,4.42,0,0,0,206.47,23a5,5,0,0,0,1.75-1.53A3.24,3.24,0,0,0,208.82,19.63Z" transform="translate(-7.43 -8.86)"/>
      <path class="cls-1" d="M259.22,33.45a8.65,8.65,0,0,1-1.38,4.85,9.07,9.07,0,0,1-4,3.29,14.8,14.8,0,0,1-6.12,1.17,24.79,24.79,0,0,1-4.92-.41,18.27,18.27,0,0,1-4.13-1.43V33.86a23.58,23.58,0,0,0,4.72,1.82,17.56,17.56,0,0,0,4.49.65,4.37,4.37,0,0,0,2.59-.61,1.88,1.88,0,0,0,.82-1.58,1.74,1.74,0,0,0-.33-1.05,3.86,3.86,0,0,0-1.06-.91q-.73-.46-3.9-1.89a18.73,18.73,0,0,1-4.3-2.53,7.75,7.75,0,0,1-2.13-2.81,9.32,9.32,0,0,1-.69-3.75,7.52,7.52,0,0,1,2.95-6.32q3-2.27,8.11-2.27a22.74,22.74,0,0,1,9.29,2.11l-2.43,6.12a17.59,17.59,0,0,0-7.1-1.89,3.7,3.7,0,0,0-2.25.54,1.64,1.64,0,0,0-.7,1.34,1.94,1.94,0,0,0,.89,1.55,34,34,0,0,0,4.85,2.49,13.42,13.42,0,0,1,5.27,3.66A8,8,0,0,1,259.22,33.45Z" transform="translate(-7.43 -8.86)"/>
      <path class="cls-1" d="M281.76,42.36l-1.44-5.5h-9.53l-1.49,5.5h-8.71l9.57-29.45h10.57l9.69,29.45Zm-3.09-12-1.26-4.82q-.44-1.61-1.07-4.15t-.83-3.65q-.18,1-.71,3.37t-2.36,9.25Z" transform="translate(-7.43 -8.86)"/>
      <path class="cls-1" d="M301.4,42.36h-7.8V13h17.34v6.36H301.4V25h8.79v6.36H301.4Z" transform="translate(-7.43 -8.86)"/>
      <path class="cls-1" d="M333.16,42.36H315.74V13h17.42v6.36h-9.49V24h8.79v6.36h-8.79V35.9h9.49Z" transform="translate(-7.43 -8.86)"/>
      <path class="cls-1" d="M351.24,42.36h-7.93V19.51h-7.16V13h22.23v6.48h-7.14Z" transform="translate(-7.43 -8.86)"/>
      <path class="cls-1" d="M373,23.9,378.1,13h8.59L377,30.91V42.36h-8V31.15L359.4,13H368Z" transform="translate(-7.43 -8.86)"/>
    </g>
    <g>
      <path class="cls-2" d="M27.69,56.13a39.73,39.73,0,0,1,.07-22.3,39.54,39.54,0,0,0-18,11.25q-1.22,1.33-2.32,2.78A31.63,31.63,0,0,0,36.06,76.4q1.43-1.09,2.75-2.3A39.53,39.53,0,0,1,27.69,56.13Z" transform="translate(-7.43 -8.86)"/>
      <path class="cls-3" d="M72.47,44.84A39.58,39.58,0,0,1,32.26,56.13a39.53,39.53,0,0,0,11.11,18q1.32,1.22,2.75,2.32A31.63,31.63,0,0,0,75,47.86Q73.81,46.28,72.47,44.84Z" transform="translate(-7.43 -8.86)"/>
      <path class="cls-4" d="M53.92,42.62v0Z" transform="translate(-7.43 -8.86)"/>
      <path class="cls-5" d="M46.56,8.86Q45,10,43.52,11.38A39.43,39.43,0,0,1,56.2,40.3s0,0,0,0v0a39.54,39.54,0,0,1-1.58,11.09A39.54,39.54,0,0,0,72.47,40.28q1.34-1.46,2.52-3A31.64,31.64,0,0,0,46.56,8.86Z" transform="translate(-7.43 -8.86)"/>
      <polygon class="cls-4" points="33.8 21.09 33.8 21.09 33.8 21.09 33.8 21.09"/>
      <path class="cls-6" d="M39,11.38q-1.44-1.34-3-2.53A31.63,31.63,0,0,0,7.43,37.75q1.11,1.44,2.35,2.77A39.58,39.58,0,0,1,50,29.24,39.53,39.53,0,0,0,39,11.38Z" transform="translate(-7.43 -8.86)"/>
    </g>
  </g>
</svg>
